# xmcd
#
# Track frame offsets:
#	150
#	14635
#	31270
#	46020
#	63465
#	79375
#	91217
#	104892
#	121012
#	135490
#	150352
#	166095
#	179352
#	194002
#
# Disc length: 2871 seconds
# Revision: 3
# Processed by: cddbd v1.5.2PL0 Copyright (c) Steve Scherf et al.
# Submitted via: dBpowerAMP V12.0
#
DISCID=b20b350e
DTITLE=Ben E. King - The Voice of Soul
DYEAR=1965
DGENRE=Soul
TTITLE0=Spread Myself Around
TTITLE1=Into the Mystic
TTITLE2=Love Is Gonna Get You
TTITLE3=She Does It Right
TTITLE4=I Guess Its Goodbye
TTITLE5=White Moon
TTITLE6=Stand by Me
TTITLE7=Take Me to the Pilot
TTITLE8=Only You Know and I Know
TTITLE9=The Beginning of It All
TTITLE10=Travelin' Woman
TTITLE11=Love Is
TTITLE12=Do It Now
TTITLE13=All of Your Tomorrows
EXTD=
EXTT0=
EXTT1=
EXTT2=
EXTT3=
EXTT4=
EXTT5=
EXTT6=
EXTT7=
EXTT8=
EXTT9=
EXTT10=
EXTT11=
EXTT12=
EXTT13=
PLAYORDER=
